<svg width="22" height="24" viewBox="0 0 22 24" fill="none" xmlns="http://www.w3.org/2000/svg">
<path d="M4.33332 24.0001C3.59998 24.0001 2.97243 23.7392 2.45065 23.2175C1.92887 22.6957 1.66754 22.0677 1.66665 21.3335V4.00012C1.28887 4.00012 0.972429 3.87212 0.717318 3.61612C0.462207 3.36012 0.334206 3.04368 0.333318 2.66679C0.332429 2.2899 0.460429 1.97346 0.717318 1.71746C0.974207 1.46146 1.29065 1.33346 1.66665 1.33346H6.99998C6.99998 0.955678 7.12798 0.639233 7.38398 0.384122C7.63998 0.129011 7.95643 0.00101096 8.33332 0.00012207H13.6667C14.0444 0.00012207 14.3613 0.128122 14.6173 0.384122C14.8733 0.640122 15.0009 0.956566 15 1.33346H20.3333C20.7111 1.33346 21.028 1.46146 21.284 1.71746C21.54 1.97346 21.6675 2.2899 21.6667 2.66679C21.6658 3.04368 21.5378 3.36057 21.2827 3.61746C21.0275 3.87434 20.7111 4.0019 20.3333 4.00012V21.3335C20.3333 22.0668 20.0724 22.6948 19.5507 23.2175C19.0289 23.7401 18.4009 24.001 17.6667 24.0001H4.33332ZM17.6667 4.00012H4.33332V21.3335H17.6667V4.00012ZM8.33332 18.6668C8.7111 18.6668 9.02798 18.5388 9.28399 18.2828C9.53998 18.0268 9.66754 17.7103 9.66665 17.3335V8.00012C9.66665 7.62234 9.53865 7.3059 9.28265 7.05079C9.02665 6.79568 8.71021 6.66768 8.33332 6.66679C7.95643 6.6659 7.63998 6.7939 7.38398 7.05079C7.12798 7.30768 6.99998 7.62412 6.99998 8.00012V17.3335C6.99998 17.7112 7.12798 18.0281 7.38398 18.2841C7.63998 18.5401 7.95643 18.6677 8.33332 18.6668ZM13.6667 18.6668C14.0444 18.6668 14.3613 18.5388 14.6173 18.2828C14.8733 18.0268 15.0009 17.7103 15 17.3335V8.00012C15 7.62234 14.872 7.3059 14.616 7.05079C14.36 6.79568 14.0435 6.66768 13.6667 6.66679C13.2898 6.6659 12.9733 6.7939 12.7173 7.05079C12.4613 7.30768 12.3333 7.62412 12.3333 8.00012V17.3335C12.3333 17.7112 12.4613 18.0281 12.7173 18.2841C12.9733 18.5401 13.2898 18.6677 13.6667 18.6668Z" fill="#F97316"/>
</svg>
