<svg width="24" height="24" viewBox="0 0 24 24" fill="none" xmlns="http://www.w3.org/2000/svg">
<path d="M11.9223 10.6471C13.794 10.6471 15.3167 9.1244 15.3167 7.25274C15.3167 5.38108 13.794 3.8584 11.9223 3.8584C10.0507 3.8584 8.52795 5.38112 8.52795 7.25274C8.52795 9.1244 10.0507 10.6471 11.9223 10.6471ZM11.9223 5.26876C13.0163 5.26876 13.9063 6.15878 13.9063 7.25269C13.9063 8.3467 13.0163 9.23667 11.9223 9.23667C10.8284 9.23667 9.93836 8.34665 9.93836 7.25269C9.93836 6.15878 10.8284 5.26876 11.9223 5.26876Z" fill="#7B61FF"/>
<path d="M11.9223 16.8148C16.5581 16.8148 20.3297 13.0432 20.3297 8.40736C20.3297 3.77153 16.5582 0 11.9223 0C7.28642 0 3.51489 3.77153 3.51489 8.40736C3.51489 13.0432 7.28642 16.8148 11.9223 16.8148ZM7.88434 14.1185C8.44188 12.8852 9.69399 12.0577 11.0777 12.0577H12.767C14.1507 12.0577 15.4028 12.8852 15.9603 14.1185C14.8188 14.928 13.4251 15.4044 11.9223 15.4044C10.4195 15.4044 9.02588 14.928 7.88434 14.1185ZM11.9223 1.41041C15.7804 1.41041 18.9193 4.54923 18.9193 8.40736C18.9193 10.2401 18.2106 11.9103 17.0533 13.159C16.7238 12.5717 16.2748 12.0508 15.7359 11.6423C14.8772 10.9913 13.8505 10.6472 12.767 10.6472H11.0776C9.99408 10.6472 8.96744 10.9913 8.10869 11.6423C7.56977 12.0508 7.12079 12.5716 6.79127 13.159C5.63399 11.9103 4.9253 10.2401 4.9253 8.40736C4.9253 4.54923 8.06417 1.41041 11.9223 1.41041Z" fill="#7B61FF"/>
<path d="M4.65482 20.2177L3.73767 18.3647L2.82049 20.2177L0.77478 20.5174L2.25369 21.9622L1.90654 24.0004L3.73767 23.0403L5.56881 24.0004L5.22161 21.9622L6.70047 20.5174L4.65482 20.2177Z" fill="#7B61FF"/>
<path d="M12.9173 20.2177L12.0001 18.3647L11.083 20.2177L9.03723 20.5174L10.5161 21.9622L10.169 24.0004L12.0001 23.0403L13.8313 24.0004L13.4841 21.9622L14.9629 20.5174L12.9173 20.2177Z" fill="#7B61FF"/>
<path d="M23.2254 20.5174L21.1797 20.2177L20.2626 18.3647L19.3454 20.2177L17.2997 20.5174L18.7786 21.9622L18.4314 24.0004L20.2626 23.0403L22.0937 24.0004L21.7465 21.9622L23.2254 20.5174Z" fill="#7B61FF"/>
</svg>
