<svg width="24" height="24" viewBox="0 0 24 24" fill="none" xmlns="http://www.w3.org/2000/svg">
<path d="M7 15.4995C6.86739 15.4995 6.74021 15.5522 6.64645 15.646C6.55268 15.7397 6.5 15.8669 6.5 15.9995C6.5 16.1321 6.55268 16.2593 6.64645 16.3531C6.74021 16.4468 6.86739 16.4995 7 16.4995H9C9.13261 16.4995 9.25979 16.4468 9.35355 16.3531C9.44732 16.2593 9.5 16.1321 9.5 15.9995C9.5 15.8669 9.44732 15.7397 9.35355 15.646C9.25979 15.5522 9.13261 15.4995 9 15.4995H7Z" fill="#7B61FF"/>
<path d="M3.5 10.8001C3.5 10.1341 3.5 9.60709 3.531 9.17809C3.564 8.73809 3.631 8.36609 3.781 8.01309C4.02846 7.43266 4.42823 6.92993 4.938 6.55809C5.248 6.33309 5.595 6.18409 6.017 6.05409C6.428 5.92709 6.941 5.80809 7.589 5.65909L11.032 4.86409C12.016 4.63709 12.787 4.45909 13.409 4.37209C14.041 4.28409 14.577 4.27909 15.076 4.44109C15.8828 4.7018 16.5676 5.24654 17.003 5.97409C17.146 6.21309 17.246 6.47209 17.316 6.75709L17.339 6.76709C17.7638 6.94287 18.1498 7.20061 18.4749 7.52559C18.8001 7.85056 19.058 8.23641 19.234 8.66109C19.377 9.00709 19.44 9.38109 19.47 9.82509C19.5 10.2601 19.5 10.7981 19.5 11.4821V11.5001H19C19.3978 11.5001 19.7794 11.6581 20.0607 11.9394C20.342 12.2207 20.5 12.6023 20.5 13.0001C20.5 13.3979 20.342 13.7794 20.0607 14.0607C19.7794 14.3421 19.3978 14.5001 19 14.5001H19.5V14.5181C19.5 15.2021 19.5 15.7401 19.47 16.1751C19.44 16.6191 19.377 16.9931 19.234 17.3391C19.0581 17.764 18.8002 18.15 18.4751 18.4751C18.1499 18.8003 17.7639 19.0582 17.339 19.2341C16.993 19.3771 16.619 19.4401 16.176 19.4701C15.74 19.5001 15.202 19.5001 14.518 19.5001H8.778C7.957 19.5001 7.31 19.5001 6.788 19.4571C6.258 19.4141 5.814 19.3241 5.411 19.1191C4.7522 18.7835 4.2166 18.2479 3.881 17.5891C3.676 17.1861 3.586 16.7421 3.543 16.2111C3.5 15.6911 3.5 15.0441 3.5 14.2221V10.8001ZM11.233 5.84409L8.39 6.50009H14.519C15.199 6.50009 15.736 6.50009 16.17 6.53009L16.146 6.48709C15.8351 5.96749 15.3461 5.57841 14.77 5.39209C14.48 5.29909 14.119 5.28209 13.549 5.36209C12.975 5.44209 12.247 5.61009 11.234 5.84409M18.474 9.89309C18.447 9.50009 18.395 9.24809 18.311 9.04309C18.1827 8.73375 17.9935 8.45334 17.7547 8.21851C17.516 7.98368 17.2324 7.79923 16.921 7.67609L16.765 7.63609C16.261 7.50609 15.562 7.50009 14.285 7.50009H8.8C7.952 7.50009 7.345 7.50009 6.87 7.54009C6.401 7.57809 6.104 7.65009 5.865 7.77209C5.36375 8.02796 4.96349 8.44548 4.729 8.95709C4.633 9.18109 4.573 9.46009 4.539 9.87009L4.526 10.0551C4.50195 10.6364 4.49328 11.2183 4.5 11.8001V14.2001C4.5 15.0481 4.5 15.6551 4.54 16.1301C4.578 16.5991 4.65 16.8961 4.772 17.1351C5.01189 17.6054 5.39451 17.9876 5.865 18.2271C6.104 18.3491 6.401 18.4221 6.87 18.4611C7.345 18.5001 7.952 18.5001 8.8 18.5001H14.5C15.206 18.5001 15.71 18.5001 16.107 18.4731C16.5 18.4461 16.752 18.3941 16.957 18.3101C17.2603 18.1845 17.5359 18.0003 17.7681 17.7682C18.0002 17.536 18.1844 17.2604 18.31 16.9571C18.394 16.7521 18.446 16.5001 18.473 16.1071C18.5 15.7101 18.5 15.2061 18.5 14.5001H17C16.6022 14.5001 16.2206 14.3421 15.9393 14.0607C15.658 13.7794 15.5 13.3979 15.5 13.0001C15.5 12.6023 15.658 12.2207 15.9393 11.9394C16.2206 11.6581 16.6022 11.5001 17 11.5001H18.5C18.5 10.7941 18.5 10.2901 18.473 9.89309M17 12.5001C16.8674 12.5001 16.7402 12.5528 16.6464 12.6465C16.5527 12.7403 16.5 12.8675 16.5 13.0001C16.5 13.1327 16.5527 13.2599 16.6464 13.3536C16.7402 13.4474 16.8674 13.5001 17 13.5001H19C19.1326 13.5001 19.2598 13.4474 19.3536 13.3536C19.4473 13.2599 19.5 13.1327 19.5 13.0001C19.5 12.8675 19.4473 12.7403 19.3536 12.6465C19.2598 12.5528 19.1326 12.5001 19 12.5001H17Z" fill="#7B61FF"/>
</svg>
