<svg width="684" height="265" viewBox="0 0 684 265" fill="none" xmlns="http://www.w3.org/2000/svg">
<path opacity="0.03" d="M0.0886906 214.256V171.873L106.356 4.45454H142.898V63.1193H121.271L54.279 169.138V171.127H205.291V214.256H0.0886906ZM122.266 259V201.33L123.26 182.562V4.45454H173.722V259H122.266ZM340.953 264.593C319.576 264.51 301.181 259.249 285.769 248.808C270.44 238.368 258.632 223.246 250.346 203.442C242.143 183.639 238.083 159.817 238.166 131.976C238.166 104.218 242.267 80.5613 250.47 61.0064C258.756 41.4515 270.564 26.5781 285.893 16.3864C301.305 6.11174 319.658 0.974422 340.953 0.974422C362.248 0.974422 380.56 6.11174 395.889 16.3864C411.301 26.661 423.15 41.5757 431.436 61.1307C439.722 80.6027 443.824 104.218 443.741 131.976C443.741 159.9 439.598 183.763 431.312 203.567C423.109 223.37 411.343 238.492 396.014 248.933C380.685 259.373 362.331 264.593 340.953 264.593ZM340.953 219.973C355.537 219.973 367.179 212.64 375.879 197.974C384.579 183.308 388.888 161.308 388.805 131.976C388.805 112.67 386.816 96.5947 382.839 83.7514C378.945 70.9081 373.393 61.255 366.184 54.7919C359.058 48.3288 350.648 45.0973 340.953 45.0973C326.453 45.0973 314.853 52.3475 306.152 66.848C297.452 81.3485 293.06 103.058 292.978 131.976C292.978 151.531 294.925 167.854 298.819 180.946C302.796 193.955 308.389 203.732 315.598 210.278C322.807 216.741 331.259 219.973 340.953 219.973ZM478.263 214.256V171.873L584.53 4.45454H621.071V63.1193H599.445L532.453 169.138V171.127H683.465V214.256H478.263ZM600.439 259V201.33L601.434 182.562V4.45454H651.895V259H600.439Z" fill="#152536"/>
</svg>
