<svg width="55" height="74" viewBox="0 0 55 74" fill="none" xmlns="http://www.w3.org/2000/svg">
<rect width="54.3422" height="74" rx="16" fill="#F97316"/>
<path d="M22.0112 14.4239C19.2867 17.6762 21.9226 22.5365 23.0375 23.2877C22.0069 23.0583 19.469 21.9837 17.9345 19.7993C15.588 16.46 15.5936 10.352 21.7454 8.41136C27.9784 6.44529 31.9949 12.0931 31.927 13.4292C30.6145 12.4066 25.5484 10.2021 22.0112 14.4239Z" fill="#7B61FF"/>
<path d="M29.363 8.28721C29.363 8.28721 33.1941 7.75829 35.639 10.7559C37.4719 13.0045 37.5181 15.1162 37.0921 16.9542C36.3615 20.1025 33.2724 22.3184 31.5278 23.3033C33.0233 21.8749 37.0613 12.4292 29.363 8.28721Z" fill="#7B61FF"/>
<path d="M27.2029 49.4802C29.3343 47.346 31.1221 45.8553 33.2805 45.5364L33.2412 43.7953C29.552 42.7186 27.4165 38.117 27.1507 37.2029C26.8496 38.6517 24.7514 42.8438 21.0917 43.9282L21.0591 45.5253C23.0257 45.8245 25.0504 47.3237 27.2029 49.4802Z" fill="#7B61FF"/>
<path d="M36.7723 46.8577C33.7789 46.8577 31.6667 48.0662 29.9605 49.65C26.9276 52.4665 22.836 59.5398 19.1148 59.9685C16.0595 60.3202 14.5264 58.2801 14.5264 56.3332C14.5264 54.2886 16.1839 52.6307 18.2288 52.6307C20.0957 52.6307 21.6357 54.0138 21.8901 55.8103C23.2687 54.1098 24.5172 52.5408 25.695 51.1649C24.2838 49.511 22.0254 46.8574 17.5699 46.8574C12.2849 46.8574 8 51.1416 8 56.4271C8 64.8343 18.0678 69.0962 24.1252 63.3961C25.178 62.4529 26.213 61.2738 27.173 60.0306C28.1194 61.2566 29.1396 62.4213 30.1773 63.3577C31.8943 64.9919 34.2158 65.997 36.7723 65.997C42.0573 65.997 46.3422 61.7126 46.3422 56.4268C46.3422 51.1418 42.057 46.8577 36.7723 46.8577ZM35.9771 60.0361C33.5717 60.0361 31.6041 58.2101 29.83 56.204C30.2849 55.4857 30.6911 54.8114 31.0335 54.2249C31.4489 54.7395 31.8754 55.2684 32.3157 55.8109C32.5696 54.0143 34.1099 52.6313 35.9771 52.6313C38.0209 52.6313 39.6792 54.2891 39.6792 56.3337C39.6792 58.3783 38.0209 60.0361 35.9771 60.0361Z" fill="#7B61FF"/>
<path d="M40.2711 29.4313C39.3624 28.945 38.2745 28.7785 37.0244 28.6713C32.0352 28.2424 30.5572 27.6461 30.1108 25.879C29.3617 22.9129 30.8667 22.1208 31.593 19.5863C32.4432 16.6221 30.3232 13.6626 27.2558 13.6626C24.1857 13.6626 21.9897 16.6494 22.9181 19.5863C23.5735 22.129 25.4624 23.1118 24.4006 25.879C23.7475 27.5803 22.4762 28.2424 17.487 28.6713C16.2373 28.7785 15.149 28.945 14.2408 29.4313C11.9694 30.5525 10.4065 32.8905 10.4065 35.5947C10.4065 39.39 13.4829 42.4665 17.2777 42.4665C19.6339 42.4665 21.7273 41.924 23.5743 39.6213C25.99 36.6093 25.6807 34.4218 25.6916 33.5196C25.7303 30.4806 26.8282 29.9989 27.2555 29.9989C27.6829 29.9989 28.7813 30.4806 28.819 33.5196C28.8304 34.4215 28.5211 36.6093 30.9368 39.6213C32.7837 41.924 34.8777 42.4665 37.2334 42.4665C41.0284 42.4665 44.1046 39.3898 44.1046 35.5947C44.1049 32.8905 42.542 30.5525 40.2711 29.4313ZM17.5705 40.0402C15.7511 40.0402 14.276 38.5648 14.276 36.7454C14.276 34.926 15.7509 33.4509 17.5705 33.4509C19.3902 33.4509 20.8653 34.926 20.8653 36.7454C20.8653 38.5648 19.3904 40.0402 17.5705 40.0402ZM36.9528 40.0404C35.1334 40.0404 33.6583 38.5653 33.6583 36.7457C33.6583 34.9263 35.1331 33.4509 36.9528 33.4509C38.7727 33.4509 40.2472 34.9263 40.2472 36.7457C40.2472 38.5651 38.773 40.0404 36.9528 40.0404Z" fill="#7B61FF"/>
<path d="M22.1406 15.7116C19.4843 18.8826 22.0543 23.6213 23.1413 24.3538C22.1365 24.13 19.662 23.0824 18.1658 20.9526C15.8781 17.6968 15.8835 11.7414 21.8815 9.84932C27.9587 7.9324 31.8748 13.439 31.8085 14.7417C30.5289 13.7447 25.5894 11.5953 22.1406 15.7116Z" fill="white"/>
<path d="M29.3076 9.7304C29.3076 9.7304 33.0429 9.2147 35.4267 12.1374C37.2138 14.3298 37.2588 16.3887 36.8434 18.1807C36.1312 21.2503 33.1192 23.4109 31.4183 24.3711C32.8764 22.9784 36.8134 13.7688 29.3076 9.7304Z" fill="white"/>
<path d="M27.2032 49.8938C29.2812 47.8129 31.0243 46.3594 33.1288 46.0485L33.0905 44.3509C29.4935 43.3012 27.4113 38.8146 27.1522 37.9233C26.8587 39.3359 24.8129 43.4232 21.2447 44.4805L21.2129 46.0377C23.1303 46.3294 25.1044 47.7912 27.2032 49.8938Z" fill="white"/>
<path d="M36.533 47.3372C33.6144 47.3372 31.555 48.5155 29.8915 50.0597C26.9344 52.8058 22.9451 59.7023 19.3169 60.1202C16.338 60.4631 14.8432 58.4741 14.8432 56.5758C14.8432 54.5823 16.4593 52.9659 18.4531 52.9659C20.2733 52.9659 21.7748 54.3143 22.0229 56.066C23.3669 54.408 24.5843 52.8782 25.7326 51.5367C24.3567 49.9242 22.1548 47.3369 17.8106 47.3369C12.6578 47.3369 8.47998 51.514 8.47998 56.6673C8.47998 64.8644 18.2961 69.0197 24.202 63.4621C25.2285 62.5425 26.2377 61.3929 27.1736 60.1807C28.0964 61.3761 29.0911 62.5117 30.1028 63.4247C31.7769 65.018 34.0404 65.998 36.533 65.998C41.6858 65.998 45.8637 61.8207 45.8637 56.6671C45.8637 51.5142 41.6856 47.3372 36.533 47.3372ZM35.7576 60.1862C33.4124 60.1862 31.494 58.4058 29.7643 56.4498C30.2078 55.7495 30.6038 55.092 30.9377 54.5202C31.3427 55.0219 31.7585 55.5376 32.1878 56.0665C32.4353 54.3149 33.9372 52.9664 35.7576 52.9664C37.7503 52.9664 39.3673 54.5828 39.3673 56.5763C39.3673 58.5698 37.7503 60.1862 35.7576 60.1862Z" fill="white"/>
<path d="M39.9454 30.3437C39.0594 29.8696 37.9987 29.7072 36.7798 29.6027C31.9154 29.1845 30.4743 28.6031 30.0391 26.8802C29.3087 23.9883 30.7761 23.216 31.4843 20.7448C32.3131 17.8547 30.2462 14.9692 27.2555 14.9692C24.2622 14.9692 22.121 17.8814 23.0262 20.7448C23.6653 23.224 25.5069 24.1822 24.4716 26.8802C23.8349 28.539 22.5953 29.1845 17.7309 29.6027C16.5125 29.7072 15.4513 29.8696 14.5658 30.3437C12.3512 31.4369 10.8274 33.7164 10.8274 36.3531C10.8274 40.0535 13.8269 43.053 17.5268 43.053C19.8242 43.053 21.8652 42.5241 23.666 40.279C26.0213 37.3423 25.7198 35.2095 25.7304 34.3299C25.7681 31.3668 26.8386 30.8971 27.2552 30.8971C27.6719 30.8971 28.7428 31.3668 28.7796 34.3299C28.7907 35.2092 28.4891 37.3423 30.8444 40.279C32.6452 42.5241 34.6868 43.053 36.9836 43.053C40.6838 43.053 43.6831 40.0532 43.6831 36.3531C43.6833 33.7164 42.1595 31.4369 39.9454 30.3437ZM17.8123 40.6874C16.0384 40.6874 14.6002 39.2489 14.6002 37.475C14.6002 35.7011 16.0382 34.2629 17.8123 34.2629C19.5865 34.2629 21.0247 35.7011 21.0247 37.475C21.0247 39.2489 19.5867 40.6874 17.8123 40.6874ZM36.71 40.6876C34.9361 40.6876 33.4979 39.2494 33.4979 37.4753C33.4979 35.7014 34.9359 34.2629 36.71 34.2629C38.4844 34.2629 39.9221 35.7014 39.9221 37.4753C39.9221 39.2492 38.4847 40.6876 36.71 40.6876Z" fill="white"/>
</svg>
